<svg xmlns="http://www.w3.org/2000/svg" width="96" height="120" viewBox="0 0 96 120" fill="none"><ellipse cx="48" cy="112" rx="14" ry="5" fill="#000" opacity=".25"></ellipse><path d="M48 108 30 82h36z" fill="#2f7a2b"></path><path d="M48 100 36 84h24z" fill="#dcefd0"></path><circle cx="48" cy="48" r="42" fill="#2f7a2b"></circle><circle cx="48" cy="46" r="40" fill="#fff6e0" stroke="#2f7a2b" stroke-width="6"></circle><circle cx="48" cy="46" r="30" fill="#dcefd0"></circle><g transform="translate(48 46)" stroke="#6e2412" stroke-width="2.5" stroke-linejoin="round"><path d="M0-18c-3-5-10-7-15-5M0-18c3-5 10-7 15-5M0-18v-6" stroke="#2f7a2b" stroke-width="3.5" stroke-linecap="round"></path><path d="M0-17c11 0 17 8 17 17S10 17 0 17-17 9-17 0-11-17 0-17z" fill="#b8321c"></path><circle cx="-8" cy="-6" r="5" fill="#e8552e"></circle><circle cx="3" cy="-9" r="5" fill="#f07a2a"></circle><circle cx="10" cy="0" r="5" fill="#e8552e"></circle><circle cx="-3" cy="3" r="5" fill="#f07a2a"></circle><circle cx="-10" cy="7" r="4.5" fill="#d8431f"></circle><circle cx="5" cy="10" r="4.5" fill="#d8431f"></circle><circle cx="1" cy="-10.5" r="1.4" fill="#ffd9a0" stroke="none"></circle><circle cx="-10" cy="-7.5" r="1.4" fill="#ffd9a0" stroke="none"></circle><circle cx="-5" cy="1.5" r="1.4" fill="#ffd9a0" stroke="none"></circle></g></svg>
